<?xml version="1.0" encoding="utf-8"?>
<!-- Generator: Adobe Illustrator 21.0.0, SVG Export Plug-In . SVG Version: 6.00 Build 0)  -->
<svg version="1.1" id="Layer_1" xmlns="http://www.w3.org/2000/svg" xmlns:xlink="http://www.w3.org/1999/xlink" x="0px" y="0px"
	 viewBox="0 0 1000 1000" style="enable-background:new 0 0 1000 1000;" xml:space="preserve">
<style type="text/css">
	.st0{fill:#808080;}
</style>
<polygon class="st0" points="709.2,559.5 674.7,559.5 673.8,557.7 601,414.2 581.1,414.2 524.3,526.2 523.9,527.1 489.4,527.1 
	490.3,525.3 544.6,418.2 547.5,412.6 558.5,390.8 623.7,390.8 623.9,391.3 "/>
<polygon class="st0" points="488.7,423.1 487.8,425 419.6,559.5 354.4,559.5 268.9,390.8 303.4,390.8 304.3,392.6 377.1,536.2 
	396.9,536.2 454.1,423.5 454.2,423.1 "/>
<polygon class="st0" points="495.9,429.1 503.6,414.1 325.4,414.1 313.6,390.8 548.3,390.8 539.4,408.5 536.5,414.1 482.2,521.2 
	474.6,536.2 652.7,536.2 664.5,559.5 429.8,559.5 441.6,536.2 "/>
<g>
	<path class="st0" d="M359.6,596.3c-2.1-2.1-3.2-5.1-3.2-9v-15h6.2v14.7c0,4.8,2,7.2,6,7.2c1.9,0,3.4-0.6,4.4-1.7
		c1-1.2,1.5-3,1.5-5.4v-14.7h6.1v15c0,3.9-1.1,6.9-3.2,9c-2.1,2.1-5.1,3.2-8.9,3.2S361.8,598.4,359.6,596.3z"/>
	<path class="st0" d="M430.2,594v5h-23.3v-4l14.6-17.7h-14.3v-5h22.5v4L415.1,594H430.2z"/>
	<path class="st0" d="M473.6,593.3h-12.4l-2.4,5.7h-6.3l11.9-26.7h6.1l11.9,26.7H476L473.6,593.3z M471.7,588.6l-4.2-10.2l-4.2,10.2
		H471.7z"/>
	<path class="st0" d="M549.5,588.6l-3.6,3.7v6.8h-6.1v-26.7h6.1v12.5l11.8-12.5h6.9l-11.1,11.9l11.7,14.8h-7.2L549.5,588.6z"/>
	<path class="st0" d="M594.4,597.7c-2.2-1.2-4-2.8-5.2-4.9c-1.3-2.1-1.9-4.5-1.9-7.1c0-2.6,0.6-5,1.9-7.1c1.3-2.1,3-3.7,5.2-4.9
		s4.7-1.8,7.5-1.8s5.3,0.6,7.5,1.8s4,2.8,5.2,4.9c1.3,2.1,1.9,4.5,1.9,7.1c0,2.6-0.6,5-1.9,7.1c-1.3,2.1-3,3.7-5.2,4.9
		s-4.7,1.8-7.5,1.8S596.6,598.9,594.4,597.7z M606.1,593.2c1.3-0.7,2.3-1.7,3-3s1.1-2.8,1.1-4.4c0-1.7-0.4-3.1-1.1-4.4s-1.7-2.3-3-3
		s-2.7-1.1-4.3-1.1s-3,0.4-4.3,1.1c-1.3,0.7-2.3,1.7-3,3c-0.7,1.3-1.1,2.8-1.1,4.4c0,1.7,0.4,3.1,1.1,4.4c0.7,1.3,1.7,2.3,3,3
		c1.3,0.7,2.7,1.1,4.3,1.1S604.9,593.9,606.1,593.2z"/>
	<path class="st0" d="M645.6,598.6c-2-0.6-3.6-1.3-4.7-2.2l2.1-4.7c1.1,0.8,2.5,1.5,4.1,2s3.2,0.8,4.7,0.8c1.8,0,3.1-0.3,3.9-0.8
		c0.8-0.5,1.3-1.2,1.3-2.1c0-0.6-0.2-1.2-0.7-1.6c-0.5-0.4-1.1-0.8-1.9-1c-0.8-0.3-1.8-0.5-3.1-0.8c-2-0.5-3.7-1-5-1.5
		c-1.3-0.5-2.4-1.3-3.3-2.3c-0.9-1.1-1.4-2.5-1.4-4.3c0-1.6,0.4-3,1.3-4.2c0.8-1.3,2.1-2.3,3.8-3c1.7-0.7,3.8-1.1,6.2-1.1
		c1.7,0,3.4,0.2,5,0.6c1.6,0.4,3.1,1,4.3,1.8l-1.9,4.7c-2.5-1.4-4.9-2.1-7.4-2.1c-1.7,0-3,0.3-3.8,0.8c-0.8,0.6-1.2,1.3-1.2,2.2
		c0,0.9,0.5,1.6,1.4,2c1,0.4,2.4,0.9,4.4,1.3c2,0.5,3.7,1,5,1.5c1.3,0.5,2.4,1.2,3.3,2.3c0.9,1,1.4,2.5,1.4,4.2
		c0,1.5-0.4,2.9-1.3,4.2c-0.9,1.3-2.1,2.3-3.8,3c-1.7,0.7-3.8,1.1-6.2,1.1C649.7,599.5,647.6,599.2,645.6,598.6z"/>
	<path class="st0" d="M694.3,577.4h-8.5v-5h23.3v5h-8.5V599h-6.2V577.4z"/>
</g>
</svg>
